<?xml version="1.0" encoding="UTF-8"?>
<svg id="Layer_2" data-name="Layer 2" xmlns="http://www.w3.org/2000/svg" viewBox="0 0 35.12 40">
  <defs>
    <style>
      .cls-1 {
        fill: #223a76;
      }
    </style>
  </defs>
  <g id="Layer_1-2" data-name="Layer 1">
    <path class="cls-1" d="M10.81,25.71c-.55.08-2.05.29-2.44,3.51-.21,1.79-.05,7.36,0,9.33l.05,1.4H.1v-2.45c-.05-4.64,0-9.73,1.02-12.37.31-.74,1.42-3.16,2.65-4.06,1.81-1.5,3.54-2.48,5.95-2.48h14.45c3.1-.55,4.14-2.03,4.14-5.99s-1.39-6.04-8.55-6.04h-11.28l-8.5.08V.05h1.23c5.72-.05,10.07-.05,17.21-.05,8.26,0,16.68,1.5,16.68,12.63,0,2.72-.21,5.83-1.5,8.12-1.26,1.98-3.07,3.43-5.43,4.22.16.34.24.74.34,1.03l5.06,14h-7.48v-.05l-5.35-12.95c-.1-.24-.6-.95-1.1-1.42h-.31s-5.98-.16-7.97,0c-.08.11-.39.13-.58.13Z"/>
  </g>
</svg>